<?xml version="1.0" encoding="utf-8"?>
<!-- Generator: Adobe Illustrator 19.0.1, SVG Export Plug-In . SVG Version: 6.00 Build 0)  -->
<svg version="1.1" id="Слой_1" xmlns="http://www.w3.org/2000/svg" xmlns:xlink="http://www.w3.org/1999/xlink" x="0px" y="0px"
	 viewBox="0 0 599 562" style="enable-background:new 0 0 599 562;" xml:space="preserve">
<style type="text/css">
	.st0{opacity:0.18;fill:#242993;}
	.st1{fill:url(#SVGID_1_);}
	.st2{fill:url(#SVGID_2_);}
	.st3{fill:#9064C3;}
	.st4{fill:#E04AFF;}
	.st5{fill:#42FFFF;}
	.st6{opacity:0.2;fill:#242993;}
	.st7{fill:url(#SVGID_3_);}
	.st8{fill:url(#SVGID_4_);}
	.st9{fill:#8D40B7;}
	.st10{fill:url(#SVGID_5_);}
	.st11{fill:url(#SVGID_6_);}
	.st12{fill:#9741C1;}
	.st13{opacity:0.5;fill:#242993;}
	.st14{opacity:0.3;}
	.st15{fill:url(#SVGID_7_);}
	.st16{fill:#FFFFFF;}
	.st17{fill:url(#SVGID_8_);}
	.st18{fill:url(#SVGID_9_);}
	.st19{fill:url(#SVGID_10_);}
	.st20{fill:url(#SVGID_11_);}
	.st21{fill:url(#SVGID_12_);}
	.st22{fill:url(#SVGID_13_);}
	.st23{fill:url(#SVGID_14_);}
	.st24{fill:url(#SVGID_15_);}
	.st25{fill:url(#SVGID_16_);}
	.st26{fill:url(#SVGID_17_);}
	.st27{fill:url(#SVGID_18_);}
	.st28{fill:url(#SVGID_19_);}
	.st29{fill:url(#SVGID_20_);}
	.st30{fill:url(#SVGID_21_);}
	.st31{fill:url(#SVGID_22_);}
	.st32{fill:url(#SVGID_23_);}
	.st33{fill:url(#SVGID_24_);}
	.st34{fill:url(#SVGID_25_);}
	.st35{opacity:0.3;fill:url(#SVGID_26_);}
	.st36{fill:url(#SVGID_27_);}
	.st37{fill:url(#SVGID_28_);}
	.st38{fill:url(#SVGID_29_);}
	.st39{fill:url(#SVGID_30_);}
	.st40{fill:url(#SVGID_31_);}
	.st41{fill:url(#SVGID_32_);}
	.st42{fill:url(#SVGID_33_);}
	.st43{fill:url(#SVGID_34_);}
	.st44{fill:url(#SVGID_35_);}
	.st45{fill:url(#SVGID_36_);}
	.st46{fill:url(#SVGID_37_);}
	.st47{fill:url(#SVGID_38_);}
	.st48{fill:url(#SVGID_39_);}
	.st49{fill:url(#SVGID_40_);}
</style>
<g id="kvad3">
	<path class="st0" d="M501.7,100.1l-57-32.9c-1.2-0.7-1.1-2,0.3-2.8l16.7-9.7l61.5,35.5l-16.7,9.7
		C505.1,100.7,503,100.8,501.7,100.1z"/>
	<linearGradient id="SVGID_1_" gradientUnits="userSpaceOnUse" x1="556.5397" y1="21.7599" x2="460.9104" y2="98.4439">
		<stop  offset="0" style="stop-color:#BCD5FF"/>
		<stop  offset="0.151" style="stop-color:#A3BEFF"/>
		<stop  offset="0.3866" style="stop-color:#82A0FF"/>
		<stop  offset="0.6124" style="stop-color:#6A8AFF"/>
		<stop  offset="0.8221" style="stop-color:#5C7DFF"/>
		<stop  offset="1" style="stop-color:#5778FF"/>
	</linearGradient>
	<path class="st1" d="M582.8,55.3V44l-18.5,0l-41-23.7c-1-0.6-2.8-0.5-3.9,0.2L478.4,44l-18.4,0l0,11.4h0c0,0.4,0.2,0.7,0.7,0.9
		l58.9,34c1,0.6,2.8,0.5,3.9-0.2l58.3-33.7C582.4,56.2,582.7,55.8,582.8,55.3z"/>
	
		<linearGradient id="SVGID_2_" gradientUnits="userSpaceOnUse" x1="79.7296" y1="299.5774" x2="-7.1996" y2="369.2849" gradientTransform="matrix(0.866 0.5 -1 0.5774 805.1444 -167.687)">
		<stop  offset="0" style="stop-color:#C0D6FF"/>
		<stop  offset="0.2978" style="stop-color:#C5DBFF"/>
		<stop  offset="0.6488" style="stop-color:#D3E9FF"/>
		<stop  offset="1" style="stop-color:#E9FFFF"/>
	</linearGradient>
	<path class="st2" d="M519.6,79l-58.9-34c-1-0.6-0.9-1.6,0.3-2.3l58.3-33.7c1.2-0.7,2.9-0.7,3.9-0.2l58.9,34c1,0.6,0.9,1.6-0.3,2.3
		l-58.3,33.7C522.3,79.5,520.6,79.6,519.6,79z"/>
	<path class="st3" d="M519.8,75l-52.2-30.1c-0.9-0.5-0.8-1.4,0.3-2l51.7-29.8c1-0.6,2.6-0.7,3.5-0.1L575.2,43c0.9,0.5,0.8,1.4-0.2,2
		l-51.7,29.8C522.2,75.5,520.7,75.5,519.8,75z"/>
	<path class="st4" d="M519.9,72.5L472,44.8c-0.8-0.5-0.7-1.3,0.2-1.8l47.5-27.4c0.9-0.5,2.4-0.6,3.2-0.1l47.9,27.7
		c0.8,0.5,0.7,1.3-0.2,1.8l-47.5,27.4C522.2,72.9,520.7,73,519.9,72.5z"/>
	<g>
		<polygon class="st5" points="520.3,42.2 514.7,38.9 517.8,37.2 523.4,40.4 		"/>
		<polygon class="st5" points="530.7,41.7 525.1,44.9 522.1,43.2 527.7,39.9 		"/>
		<polygon class="st5" points="519,42.9 516,44.7 512.9,42.9 516,41.1 		"/>
		<polygon class="st5" points="529.6,49 526.5,50.8 517.7,45.7 520.8,43.9 		"/>
	</g>
	<animate id="kvad3" attributeType="CSS" attributeName="opacity" from=".1" to="1" dur="7s" repeatCount="indefinite" />
</g>
<g id="kvad2">
	<path class="st6" d="M515.6,302.8l-57-32.9c-1.2-0.7-1.1-2,0.3-2.8l16.7-9.7l61.5,35.5l-16.7,9.7
		C519,303.4,516.8,303.5,515.6,302.8z"/>
	<linearGradient id="SVGID_3_" gradientUnits="userSpaceOnUse" x1="570.3549" y1="224.4665" x2="474.7256" y2="301.1504">
		<stop  offset="0" style="stop-color:#BCD5FF"/>
		<stop  offset="0.151" style="stop-color:#A3BEFF"/>
		<stop  offset="0.3866" style="stop-color:#82A0FF"/>
		<stop  offset="0.6124" style="stop-color:#6A8AFF"/>
		<stop  offset="0.8221" style="stop-color:#5C7DFF"/>
		<stop  offset="1" style="stop-color:#5778FF"/>
	</linearGradient>
	<path class="st7" d="M596.6,258v-11.4l-18.5,0L537,223c-1-0.6-2.8-0.5-3.9,0.2l-40.9,23.6l-18.4,0l0,11.4h0c0,0.4,0.2,0.7,0.7,0.9
		l58.9,34c1,0.6,2.8,0.5,3.9-0.2l58.3-33.7C596.2,258.9,596.5,258.5,596.6,258z"/>
	
		<linearGradient id="SVGID_4_" gradientUnits="userSpaceOnUse" x1="290.407" y1="468.2089" x2="203.4779" y2="537.9163" gradientTransform="matrix(0.866 0.5 -1 0.5774 805.1444 -167.687)">
		<stop  offset="0" style="stop-color:#C0D6FF"/>
		<stop  offset="0.2978" style="stop-color:#C5DBFF"/>
		<stop  offset="0.6488" style="stop-color:#D3E9FF"/>
		<stop  offset="1" style="stop-color:#E9FFFF"/>
	</linearGradient>
	<path class="st8" d="M533.4,281.7l-58.9-34c-1-0.6-0.9-1.6,0.3-2.3l58.3-33.7c1.2-0.7,2.9-0.7,3.9-0.2l58.9,34
		c1,0.6,0.9,1.6-0.3,2.3l-58.3,33.7C536.2,282.2,534.4,282.3,533.4,281.7z"/>
	<path class="st9" d="M533.6,277.7l-52.2-30.1c-0.9-0.5-0.8-1.4,0.2-2l51.7-29.8c1-0.6,2.6-0.7,3.5-0.1l52.2,30.1
		c0.9,0.5,0.8,1.4-0.3,2l-51.7,29.8C536.1,278.2,534.5,278.3,533.6,277.7z"/>
	<path class="st4" d="M533.7,275.2l-47.9-27.7c-0.8-0.5-0.7-1.3,0.2-1.8l47.5-27.4c0.9-0.5,2.4-0.6,3.2-0.1l47.9,27.7
		c0.8,0.5,0.7,1.3-0.2,1.8l-47.5,27.4C536,275.6,534.6,275.7,533.7,275.2z"/>
	<g>
		<polygon class="st5" points="534.1,244.9 528.5,241.6 531.6,239.9 537.2,243.1 		"/>
		<polygon class="st5" points="544.5,244.4 538.9,247.7 535.9,245.9 541.5,242.7 		"/>
		<polygon class="st5" points="532.8,245.6 529.8,247.4 526.7,245.6 529.8,243.8 		"/>
		<polygon class="st5" points="543.4,251.7 540.4,253.5 531.5,248.4 534.6,246.6 		"/>
	</g>
	<animate id="kvad2" attributeType="CSS" attributeName="opacity" from="0" to="1" dur="10s" repeatCount="indefinite" />
</g>
<g id="kvad1">
	<path class="st6" d="M156.7,308.7l-57-32.9c-1.2-0.7-1.1-2,0.3-2.8l16.7-9.7l61.5,35.5l-16.7,9.7
		C160.1,309.4,157.9,309.5,156.7,308.7z"/>
	<linearGradient id="SVGID_5_" gradientUnits="userSpaceOnUse" x1="211.4804" y1="230.3936" x2="115.8512" y2="307.0775">
		<stop  offset="0" style="stop-color:#BCD5FF"/>
		<stop  offset="0.151" style="stop-color:#A3BEFF"/>
		<stop  offset="0.3866" style="stop-color:#82A0FF"/>
		<stop  offset="0.6124" style="stop-color:#6A8AFF"/>
		<stop  offset="0.8221" style="stop-color:#5C7DFF"/>
		<stop  offset="1" style="stop-color:#5778FF"/>
	</linearGradient>
	<path class="st10" d="M237.7,264v-11.4l-18.5,0l-41-23.7c-1-0.6-2.8-0.5-3.9,0.2l-40.9,23.6l-18.4,0l0,11.4h0
		c0,0.4,0.2,0.7,0.7,0.9l58.9,34c1,0.6,2.8,0.5,3.9-0.2l58.3-33.7C237.3,264.8,237.7,264.4,237.7,264z"/>
	
		<linearGradient id="SVGID_6_" gradientUnits="userSpaceOnUse" x1="89.1258" y1="652.7737" x2="2.1965" y2="722.4811" gradientTransform="matrix(0.866 0.5 -1 0.5774 805.1444 -167.687)">
		<stop  offset="0" style="stop-color:#C0D6FF"/>
		<stop  offset="0.2978" style="stop-color:#C5DBFF"/>
		<stop  offset="0.6488" style="stop-color:#D3E9FF"/>
		<stop  offset="1" style="stop-color:#E9FFFF"/>
	</linearGradient>
	<path class="st11" d="M174.5,287.6l-58.9-34c-1-0.6-0.9-1.6,0.3-2.3l58.3-33.7c1.2-0.7,2.9-0.7,3.9-0.2l58.9,34
		c1,0.6,0.9,1.6-0.3,2.3l-58.3,33.7C177.3,288.2,175.5,288.2,174.5,287.6z"/>
	<path class="st12" d="M174.7,283.7l-52.2-30.1c-0.9-0.5-0.8-1.4,0.2-2l51.7-29.8c1-0.6,2.6-0.7,3.5-0.1l52.2,30.1
		c0.9,0.5,0.8,1.4-0.3,2l-51.7,29.8C177.2,284.1,175.6,284.2,174.7,283.7z"/>
	<path class="st4" d="M174.9,281.1l-47.9-27.7c-0.8-0.5-0.7-1.3,0.2-1.8l47.5-27.4c0.9-0.5,2.4-0.6,3.2-0.1l47.9,27.7
		c0.8,0.5,0.7,1.3-0.2,1.8L178.1,281C177.1,281.6,175.7,281.6,174.9,281.1z"/>
	<g>
		<polygon class="st5" points="175.2,250.8 169.6,247.6 172.7,245.8 178.3,249 		"/>
		<polygon class="st5" points="185.7,250.3 180.1,253.6 177,251.8 182.6,248.6 		"/>
		<polygon class="st5" points="174,251.5 170.9,253.3 167.8,251.5 170.9,249.8 		"/>
		<polygon class="st5" points="184.5,257.6 181.5,259.4 172.7,254.3 175.7,252.6 		"/>
	</g>
	<animate id="kvad1" attributeType="CSS" attributeName="opacity" from=".1" to="1" dur="11s" repeatCount="indefinite" />
</g>
<g id="lestnica">
	<polygon class="st13" points="205.8,405.2 379.4,304.7 366.8,281 197.8,386.6 	"/>
	<g class="st14">
		<g>
			<g>
				
					<linearGradient id="SVGID_7_" gradientUnits="userSpaceOnUse" x1="257.9971" y1="304.4414" x2="305.2049" y2="304.4414" gradientTransform="matrix(0.866 0.5 -1 0.5774 439.8175 -137.8583)">
					<stop  offset="0" style="stop-color:#C0D6FF"/>
					<stop  offset="0.4983" style="stop-color:#D2E8FF"/>
					<stop  offset="1" style="stop-color:#E9FFFF"/>
				</linearGradient>
				<polygon class="st15" points="379.4,202.5 338.2,178.8 379.4,155.1 420.5,178.8 				"/>
				<polygon class="st16" points="379.4,201.6 339.1,178.3 338.2,178.8 379.4,202.5 420.5,178.8 419.6,178.3 				"/>
				
					<linearGradient id="SVGID_8_" gradientUnits="userSpaceOnUse" x1="752.3222" y1="271.5001" x2="799.5287" y2="271.5001" gradientTransform="matrix(0.866 -0.5 0 1.1547 -272.1504 355.8176)">
					<stop  offset="0" style="stop-color:#C0D6FF"/>
					<stop  offset="0.2978" style="stop-color:#C5DBFF"/>
					<stop  offset="0.6488" style="stop-color:#D3E9FF"/>
					<stop  offset="1" style="stop-color:#E9FFFF"/>
				</linearGradient>
				<polygon class="st17" points="420.5,360 379.4,383.8 379.4,202.5 420.5,178.8 				"/>
				
					<linearGradient id="SVGID_9_" gradientUnits="userSpaceOnUse" x1="665.9694" y1="453.8379" x2="736.8853" y2="453.8379" gradientTransform="matrix(0.866 0.5 0 1.1547 -265.4517 -603.1824)">
					<stop  offset="0" style="stop-color:#5778FF"/>
					<stop  offset="0.1779" style="stop-color:#5C7DFF"/>
					<stop  offset="0.3876" style="stop-color:#6A8AFF"/>
					<stop  offset="0.6134" style="stop-color:#82A0FF"/>
					<stop  offset="0.849" style="stop-color:#A3BEFF"/>
					<stop  offset="1" style="stop-color:#BCD5FF"/>
				</linearGradient>
				<polygon class="st18" points="379.4,383.8 338.2,360 338.2,178.8 379.4,202.5 				"/>
			</g>
		</g>
		<g>
			<g>
				
					<linearGradient id="SVGID_10_" gradientUnits="userSpaceOnUse" x1="298.1325" y1="392.8711" x2="345.3403" y2="392.8711" gradientTransform="matrix(0.866 0.5 -1 0.5774 439.8175 -137.8583)">
					<stop  offset="0" style="stop-color:#C0D6FF"/>
					<stop  offset="0.4983" style="stop-color:#D2E8FF"/>
					<stop  offset="1" style="stop-color:#E9FFFF"/>
				</linearGradient>
				<polygon class="st19" points="325.7,273.7 284.6,249.9 325.7,226.2 366.8,249.9 				"/>
				<polygon class="st16" points="325.7,272.7 285.4,249.4 284.6,249.9 325.7,273.7 366.8,249.9 366,249.4 				"/>
				
					<linearGradient id="SVGID_11_" gradientUnits="userSpaceOnUse" x1="690.3447" y1="288.9088" x2="737.5512" y2="288.9088" gradientTransform="matrix(0.866 -0.5 0 1.1547 -272.1504 355.8176)">
					<stop  offset="0" style="stop-color:#C0D6FF"/>
					<stop  offset="0.2978" style="stop-color:#C5DBFF"/>
					<stop  offset="0.6488" style="stop-color:#D3E9FF"/>
					<stop  offset="1" style="stop-color:#E9FFFF"/>
				</linearGradient>
				<polygon class="st20" points="366.8,391.1 325.7,414.8 325.7,273.7 366.8,249.9 				"/>
				
					<linearGradient id="SVGID_12_" gradientUnits="userSpaceOnUse" x1="603.9921" y1="524.9207" x2="674.9078" y2="524.9207" gradientTransform="matrix(0.866 0.5 0 1.1547 -265.4517 -603.1824)">
					<stop  offset="0" style="stop-color:#5778FF"/>
					<stop  offset="0.1779" style="stop-color:#5C7DFF"/>
					<stop  offset="0.3876" style="stop-color:#6A8AFF"/>
					<stop  offset="0.6134" style="stop-color:#82A0FF"/>
					<stop  offset="0.849" style="stop-color:#A3BEFF"/>
					<stop  offset="1" style="stop-color:#BCD5FF"/>
				</linearGradient>
				<polygon class="st21" points="325.7,414.8 284.6,391.1 284.6,249.9 325.7,273.7 				"/>
			</g>
		</g>
		<g>
			<g>
				
					<linearGradient id="SVGID_13_" gradientUnits="userSpaceOnUse" x1="310.0593" y1="456.8722" x2="357.2671" y2="456.8722" gradientTransform="matrix(0.866 0.5 -1 0.5774 439.8175 -137.8583)">
					<stop  offset="0" style="stop-color:#C0D6FF"/>
					<stop  offset="0.4983" style="stop-color:#D2E8FF"/>
					<stop  offset="1" style="stop-color:#E9FFFF"/>
				</linearGradient>
				<polygon class="st22" points="272,316.6 230.9,292.8 272,269.1 313.1,292.8 				"/>
				<polygon class="st16" points="272,315.6 231.8,292.3 230.9,292.8 272,316.6 313.1,292.8 312.3,292.3 				"/>
				
					<linearGradient id="SVGID_14_" gradientUnits="userSpaceOnUse" x1="628.3672" y1="294.1026" x2="675.5739" y2="294.1026" gradientTransform="matrix(0.866 -0.5 0 1.1547 -272.1504 355.8176)">
					<stop  offset="0" style="stop-color:#C0D6FF"/>
					<stop  offset="0.2978" style="stop-color:#C5DBFF"/>
					<stop  offset="0.6488" style="stop-color:#D3E9FF"/>
					<stop  offset="1" style="stop-color:#E9FFFF"/>
				</linearGradient>
				<polygon class="st23" points="313.1,422.2 272,445.9 272,316.6 313.1,292.8 				"/>
				
					<linearGradient id="SVGID_15_" gradientUnits="userSpaceOnUse" x1="542.0146" y1="583.7886" x2="612.9303" y2="583.7886" gradientTransform="matrix(0.866 0.5 0 1.1547 -265.4517 -603.1824)">
					<stop  offset="0" style="stop-color:#5778FF"/>
					<stop  offset="0.1779" style="stop-color:#5C7DFF"/>
					<stop  offset="0.3876" style="stop-color:#6A8AFF"/>
					<stop  offset="0.6134" style="stop-color:#82A0FF"/>
					<stop  offset="0.849" style="stop-color:#A3BEFF"/>
					<stop  offset="1" style="stop-color:#BCD5FF"/>
				</linearGradient>
				<polygon class="st24" points="272,445.9 230.9,422.2 230.9,292.8 272,316.6 				"/>
			</g>
		</g>
		<g>
			<g>
				
					<linearGradient id="SVGID_16_" gradientUnits="userSpaceOnUse" x1="348.4931" y1="543.8284" x2="395.701" y2="543.8284" gradientTransform="matrix(0.866 0.5 -1 0.5774 439.8175 -137.8583)">
					<stop  offset="0" style="stop-color:#C0D6FF"/>
					<stop  offset="0.4983" style="stop-color:#D2E8FF"/>
					<stop  offset="1" style="stop-color:#E9FFFF"/>
				</linearGradient>
				<polygon class="st25" points="218.3,386 177.2,362.3 218.3,338.5 259.5,362.3 				"/>
				<polygon class="st16" points="218.3,385 178.1,361.8 177.2,362.3 218.3,386 259.5,362.3 258.6,361.8 				"/>
				
					<linearGradient id="SVGID_17_" gradientUnits="userSpaceOnUse" x1="566.3898" y1="310.7747" x2="613.5963" y2="310.7747" gradientTransform="matrix(0.866 -0.5 0 1.1547 -272.1504 355.8176)">
					<stop  offset="0" style="stop-color:#C0D6FF"/>
					<stop  offset="0.2978" style="stop-color:#C5DBFF"/>
					<stop  offset="0.6488" style="stop-color:#D3E9FF"/>
					<stop  offset="1" style="stop-color:#E9FFFF"/>
				</linearGradient>
				<polygon class="st26" points="259.5,453.2 218.3,476.9 218.3,386 259.5,362.3 				"/>
				
					<linearGradient id="SVGID_18_" gradientUnits="userSpaceOnUse" x1="480.037" y1="654.1348" x2="550.9529" y2="654.1348" gradientTransform="matrix(0.866 0.5 0 1.1547 -265.4517 -603.1824)">
					<stop  offset="0" style="stop-color:#5778FF"/>
					<stop  offset="0.1779" style="stop-color:#5C7DFF"/>
					<stop  offset="0.3876" style="stop-color:#6A8AFF"/>
					<stop  offset="0.6134" style="stop-color:#82A0FF"/>
					<stop  offset="0.849" style="stop-color:#A3BEFF"/>
					<stop  offset="1" style="stop-color:#BCD5FF"/>
				</linearGradient>
				<polygon class="st27" points="218.3,476.9 177.2,453.2 177.2,362.3 218.3,386 				"/>
			</g>
		</g>
		<g>
			<g>
				
					<linearGradient id="SVGID_19_" gradientUnits="userSpaceOnUse" x1="339.338" y1="589.5724" x2="386.5458" y2="589.5724" gradientTransform="matrix(0.866 0.5 -1 0.5774 439.8175 -137.8583)">
					<stop  offset="0" style="stop-color:#C0D6FF"/>
					<stop  offset="0.4983" style="stop-color:#D2E8FF"/>
					<stop  offset="1" style="stop-color:#E9FFFF"/>
				</linearGradient>
				<polygon class="st28" points="164.7,407.8 123.6,384.1 164.7,360.4 205.8,384.1 				"/>
				<polygon class="st16" points="164.7,406.9 124.4,383.6 123.6,384.1 164.7,407.8 205.8,384.1 204.9,383.6 				"/>
				
					<linearGradient id="SVGID_20_" gradientUnits="userSpaceOnUse" x1="504.4123" y1="306.8394" x2="551.6188" y2="306.8394" gradientTransform="matrix(0.866 -0.5 0 1.1547 -272.1504 355.8176)">
					<stop  offset="0" style="stop-color:#C0D6FF"/>
					<stop  offset="0.2978" style="stop-color:#C5DBFF"/>
					<stop  offset="0.6488" style="stop-color:#D3E9FF"/>
					<stop  offset="1" style="stop-color:#E9FFFF"/>
				</linearGradient>
				<polygon class="st29" points="205.8,484.3 164.7,508 164.7,407.8 205.8,384.1 				"/>
				
					<linearGradient id="SVGID_21_" gradientUnits="userSpaceOnUse" x1="418.0598" y1="703.8735" x2="488.9755" y2="703.8735" gradientTransform="matrix(0.866 0.5 0 1.1547 -265.4517 -603.1824)">
					<stop  offset="0" style="stop-color:#5778FF"/>
					<stop  offset="0.1779" style="stop-color:#5C7DFF"/>
					<stop  offset="0.3876" style="stop-color:#6A8AFF"/>
					<stop  offset="0.6134" style="stop-color:#82A0FF"/>
					<stop  offset="0.849" style="stop-color:#A3BEFF"/>
					<stop  offset="1" style="stop-color:#BCD5FF"/>
				</linearGradient>
				<polygon class="st30" points="164.7,508 123.6,484.3 123.6,384.1 164.7,407.8 				"/>
			</g>
		</g>
	</g>
	<g>
		<g>
			
				<linearGradient id="SVGID_22_" gradientUnits="userSpaceOnUse" x1="222.4075" y1="273.6208" x2="269.6154" y2="273.6208" gradientTransform="matrix(0.866 0.5 -1 0.5774 439.8175 -137.8583)">
				<stop  offset="0" style="stop-color:#C0D6FF"/>
				<stop  offset="0.4983" style="stop-color:#D2E8FF"/>
				<stop  offset="1" style="stop-color:#E9FFFF"/>
			</linearGradient>
			<polygon class="st31" points="379.4,166.9 338.2,143.2 379.4,119.5 420.5,143.2 			"/>
			<polygon class="st16" points="379.4,166 339.1,142.7 338.2,143.2 379.4,166.9 420.5,143.2 419.6,142.7 			"/>
			
				<linearGradient id="SVGID_23_" gradientUnits="userSpaceOnUse" x1="752.3222" y1="221.8552" x2="799.5287" y2="221.8552" gradientTransform="matrix(0.866 -0.5 0 1.1547 -272.1504 355.8176)">
				<stop  offset="0" style="stop-color:#C0D6FF"/>
				<stop  offset="0.2978" style="stop-color:#C5DBFF"/>
				<stop  offset="0.6488" style="stop-color:#D3E9FF"/>
				<stop  offset="1" style="stop-color:#E9FFFF"/>
			</linearGradient>
			<polygon class="st32" points="420.5,281 379.4,304.7 379.4,166.9 420.5,143.2 			"/>
			
				<linearGradient id="SVGID_24_" gradientUnits="userSpaceOnUse" x1="665.9694" y1="404.193" x2="736.8853" y2="404.193" gradientTransform="matrix(0.866 0.5 0 1.1547 -265.4517 -603.1824)">
				<stop  offset="0" style="stop-color:#5778FF"/>
				<stop  offset="0.1779" style="stop-color:#5C7DFF"/>
				<stop  offset="0.3876" style="stop-color:#6A8AFF"/>
				<stop  offset="0.6134" style="stop-color:#82A0FF"/>
				<stop  offset="0.849" style="stop-color:#A3BEFF"/>
				<stop  offset="1" style="stop-color:#BCD5FF"/>
			</linearGradient>
			<polygon class="st33" points="379.4,304.7 338.2,281 338.2,143.2 379.4,166.9 			"/>
		</g>
	</g>
	<g>
		<g>
			
				<linearGradient id="SVGID_25_" gradientUnits="userSpaceOnUse" x1="262.5425" y1="362.0508" x2="309.7504" y2="362.0508" gradientTransform="matrix(0.866 0.5 -1 0.5774 439.8175 -137.8583)">
				<stop  offset="0" style="stop-color:#C0D6FF"/>
				<stop  offset="0.4983" style="stop-color:#D2E8FF"/>
				<stop  offset="1" style="stop-color:#E9FFFF"/>
			</linearGradient>
			<polygon class="st34" points="325.7,238.1 284.6,214.3 325.7,190.6 366.8,214.3 			"/>
			
				<linearGradient id="SVGID_26_" gradientUnits="userSpaceOnUse" x1="271.1696" y1="362.0508" x2="301.2218" y2="362.0508" gradientTransform="matrix(0.866 0.5 -1 0.5774 439.8175 -137.8583)">
				<stop  offset="0" style="stop-color:#5778FF"/>
				<stop  offset="0.1779" style="stop-color:#5C7DFF"/>
				<stop  offset="0.3876" style="stop-color:#6A8AFF"/>
				<stop  offset="0.6134" style="stop-color:#82A0FF"/>
				<stop  offset="0.849" style="stop-color:#A3BEFF"/>
				<stop  offset="1" style="stop-color:#BCD5FF"/>
			</linearGradient>
			<polygon class="st35" points="325.7,229.4 299.5,214.3 325.7,199.2 351.9,214.3 			"/>
			<polygon class="st16" points="325.7,237.1 285.4,213.8 284.6,214.3 325.7,238.1 366.8,214.3 366,213.8 			"/>
			
				<linearGradient id="SVGID_27_" gradientUnits="userSpaceOnUse" x1="690.3441" y1="239.2637" x2="737.5505" y2="239.2637" gradientTransform="matrix(0.866 -0.5 0 1.1547 -272.1504 355.8176)">
				<stop  offset="0" style="stop-color:#C0D6FF"/>
				<stop  offset="0.2978" style="stop-color:#C5DBFF"/>
				<stop  offset="0.6488" style="stop-color:#D3E9FF"/>
				<stop  offset="1" style="stop-color:#E9FFFF"/>
			</linearGradient>
			<polygon class="st36" points="366.8,312 325.7,335.8 325.7,238.1 366.8,214.3 			"/>
			
				<linearGradient id="SVGID_28_" gradientUnits="userSpaceOnUse" x1="603.9913" y1="475.2762" x2="674.9072" y2="475.2762" gradientTransform="matrix(0.866 0.5 0 1.1547 -265.4517 -603.1824)">
				<stop  offset="0" style="stop-color:#5778FF"/>
				<stop  offset="0.1779" style="stop-color:#5C7DFF"/>
				<stop  offset="0.3876" style="stop-color:#6A8AFF"/>
				<stop  offset="0.6134" style="stop-color:#82A0FF"/>
				<stop  offset="0.849" style="stop-color:#A3BEFF"/>
				<stop  offset="1" style="stop-color:#BCD5FF"/>
			</linearGradient>
			<polygon class="st37" points="325.7,335.8 284.6,312 284.6,214.3 325.7,238.1 			"/>
		</g>
	</g>
	<g>
		<g>
			
				<linearGradient id="SVGID_29_" gradientUnits="userSpaceOnUse" x1="227.0075" y1="331.2769" x2="274.2153" y2="331.2769" gradientTransform="matrix(0.866 0.5 -1 0.5774 439.8175 -137.8583)">
				<stop  offset="0" style="stop-color:#C0D6FF"/>
				<stop  offset="0.4983" style="stop-color:#D2E8FF"/>
				<stop  offset="1" style="stop-color:#E9FFFF"/>
			</linearGradient>
			<polygon class="st38" points="325.7,202.5 284.6,178.8 325.7,155.1 366.8,178.8 			"/>
			<polygon class="st16" points="325.7,201.6 285.4,178.3 284.6,178.8 325.7,202.5 366.8,178.8 366,178.3 			"/>
			
				<linearGradient id="SVGID_30_" gradientUnits="userSpaceOnUse" x1="690.3447" y1="173.4443" x2="737.5512" y2="173.4443" gradientTransform="matrix(0.866 -0.5 0 1.1547 -272.1504 355.8176)">
				<stop  offset="0" style="stop-color:#C0D6FF"/>
				<stop  offset="0.2978" style="stop-color:#C5DBFF"/>
				<stop  offset="0.6488" style="stop-color:#D3E9FF"/>
				<stop  offset="1" style="stop-color:#E9FFFF"/>
			</linearGradient>
			<polygon class="st39" points="366.8,195.6 325.7,219.3 325.7,202.5 366.8,178.8 			"/>
			
				<linearGradient id="SVGID_31_" gradientUnits="userSpaceOnUse" x1="603.9921" y1="409.4562" x2="674.9078" y2="409.4562" gradientTransform="matrix(0.866 0.5 0 1.1547 -265.4517 -603.1824)">
				<stop  offset="0" style="stop-color:#5778FF"/>
				<stop  offset="0.1779" style="stop-color:#5C7DFF"/>
				<stop  offset="0.3876" style="stop-color:#6A8AFF"/>
				<stop  offset="0.6134" style="stop-color:#82A0FF"/>
				<stop  offset="0.849" style="stop-color:#A3BEFF"/>
				<stop  offset="1" style="stop-color:#BCD5FF"/>
			</linearGradient>
			<polygon class="st40" points="325.7,219.3 284.6,195.6 284.6,178.8 325.7,202.5 			"/>
		</g>
	</g>
	
		<linearGradient id="SVGID_32_" gradientUnits="userSpaceOnUse" x1="274.4697" y1="426.0516" x2="321.6776" y2="426.0516" gradientTransform="matrix(0.866 0.5 -1 0.5774 439.8175 -137.8583)">
		<stop  offset="0" style="stop-color:#C0D6FF"/>
		<stop  offset="0.4983" style="stop-color:#D2E8FF"/>
		<stop  offset="1" style="stop-color:#E9FFFF"/>
	</linearGradient>
	<polygon class="st41" points="272,281 230.9,257.2 272,233.5 313.1,257.2 	"/>
	
		<linearGradient id="SVGID_33_" gradientUnits="userSpaceOnUse" x1="542.0146" y1="534.1438" x2="612.9303" y2="534.1438" gradientTransform="matrix(0.866 0.5 0 1.1547 -265.4517 -603.1824)">
		<stop  offset="0" style="stop-color:#5778FF"/>
		<stop  offset="0.1779" style="stop-color:#5C7DFF"/>
		<stop  offset="0.3876" style="stop-color:#6A8AFF"/>
		<stop  offset="0.6134" style="stop-color:#82A0FF"/>
		<stop  offset="0.849" style="stop-color:#A3BEFF"/>
		<stop  offset="1" style="stop-color:#BCD5FF"/>
	</linearGradient>
	<polygon class="st42" points="272,366.8 230.9,343.1 230.9,257.2 272,281 	"/>
	<g>
		<g>
			
				<linearGradient id="SVGID_34_" gradientUnits="userSpaceOnUse" x1="312.9035" y1="513.0078" x2="360.1114" y2="513.0078" gradientTransform="matrix(0.866 0.5 -1 0.5774 439.8175 -137.8583)">
				<stop  offset="0" style="stop-color:#C0D6FF"/>
				<stop  offset="0.4983" style="stop-color:#D2E8FF"/>
				<stop  offset="1" style="stop-color:#E9FFFF"/>
			</linearGradient>
			<polygon class="st43" points="218.3,350.4 177.2,326.7 218.3,302.9 259.5,326.7 			"/>
			<polygon class="st16" points="218.3,349.4 178.1,326.2 177.2,326.7 218.3,350.4 259.5,326.7 258.6,326.2 			"/>
			
				<linearGradient id="SVGID_35_" gradientUnits="userSpaceOnUse" x1="566.3898" y1="261.1298" x2="613.5963" y2="261.1298" gradientTransform="matrix(0.866 -0.5 0 1.1547 -272.1504 355.8176)">
				<stop  offset="0" style="stop-color:#C0D6FF"/>
				<stop  offset="0.2978" style="stop-color:#C5DBFF"/>
				<stop  offset="0.6488" style="stop-color:#D3E9FF"/>
				<stop  offset="1" style="stop-color:#E9FFFF"/>
			</linearGradient>
			<polygon class="st44" points="259.5,374.1 218.3,397.9 218.3,350.4 259.5,326.7 			"/>
			
				<linearGradient id="SVGID_36_" gradientUnits="userSpaceOnUse" x1="480.037" y1="604.4899" x2="550.9529" y2="604.4899" gradientTransform="matrix(0.866 0.5 0 1.1547 -265.4517 -603.1824)">
				<stop  offset="0" style="stop-color:#5778FF"/>
				<stop  offset="0.1779" style="stop-color:#5C7DFF"/>
				<stop  offset="0.3876" style="stop-color:#6A8AFF"/>
				<stop  offset="0.6134" style="stop-color:#82A0FF"/>
				<stop  offset="0.849" style="stop-color:#A3BEFF"/>
				<stop  offset="1" style="stop-color:#BCD5FF"/>
			</linearGradient>
			<polygon class="st45" points="218.3,397.9 177.2,374.1 177.2,326.7 218.3,350.4 			"/>
		</g>
	</g>
	<g>
		<g>
			
				<linearGradient id="SVGID_37_" gradientUnits="userSpaceOnUse" x1="303.7483" y1="558.7518" x2="350.9561" y2="558.7518" gradientTransform="matrix(0.866 0.5 -1 0.5774 439.8175 -137.8583)">
				<stop  offset="0" style="stop-color:#C0D6FF"/>
				<stop  offset="0.4983" style="stop-color:#D2E8FF"/>
				<stop  offset="1" style="stop-color:#E9FFFF"/>
			</linearGradient>
			<polygon class="st46" points="164.7,372.2 123.6,348.5 164.7,324.8 205.8,348.5 			"/>
			<polygon class="st16" points="164.7,371.3 124.4,348 123.6,348.5 164.7,372.2 205.8,348.5 204.9,348 			"/>
			
				<linearGradient id="SVGID_38_" gradientUnits="userSpaceOnUse" x1="504.4123" y1="257.1946" x2="551.6188" y2="257.1946" gradientTransform="matrix(0.866 -0.5 0 1.1547 -272.1504 355.8176)">
				<stop  offset="0" style="stop-color:#C0D6FF"/>
				<stop  offset="0.2978" style="stop-color:#C5DBFF"/>
				<stop  offset="0.6488" style="stop-color:#D3E9FF"/>
				<stop  offset="1" style="stop-color:#E9FFFF"/>
			</linearGradient>
			<polygon class="st47" points="205.8,405.2 164.7,428.9 164.7,372.2 205.8,348.5 			"/>
			
				<linearGradient id="SVGID_39_" gradientUnits="userSpaceOnUse" x1="418.0598" y1="654.2287" x2="488.9755" y2="654.2287" gradientTransform="matrix(0.866 0.5 0 1.1547 -265.4517 -603.1824)">
				<stop  offset="0" style="stop-color:#5778FF"/>
				<stop  offset="0.1779" style="stop-color:#5C7DFF"/>
				<stop  offset="0.3876" style="stop-color:#6A8AFF"/>
				<stop  offset="0.6134" style="stop-color:#82A0FF"/>
				<stop  offset="0.849" style="stop-color:#A3BEFF"/>
				<stop  offset="1" style="stop-color:#BCD5FF"/>
			</linearGradient>
			<polygon class="st48" points="164.7,428.9 123.6,405.2 123.6,348.5 164.7,372.2 			"/>
		</g>
	</g>
	<polygon class="st6" points="164.7,428.9 110.9,460 70.7,435.7 123.6,405.2 	"/>
	
		<linearGradient id="SVGID_40_" gradientUnits="userSpaceOnUse" x1="628.3672" y1="244.4578" x2="675.5739" y2="244.4578" gradientTransform="matrix(0.866 -0.5 0 1.1547 -272.1504 355.8176)">
		<stop  offset="0" style="stop-color:#C0D6FF"/>
		<stop  offset="0.2978" style="stop-color:#C5DBFF"/>
		<stop  offset="0.6488" style="stop-color:#D3E9FF"/>
		<stop  offset="1" style="stop-color:#E9FFFF"/>
	</linearGradient>
	<polygon class="st49" points="313.1,343.1 272,366.8 272,281 313.1,257.2 	"/>
</g>
</svg>
